<svg xmlns="http://www.w3.org/2000/svg" width="64" height="64" viewBox="0 0 64 64">
  <defs>
    <radialGradient id="o" cx="38%" cy="32%" r="75%">
      <stop offset="0" stop-color="#7cc4ff"/>
      <stop offset="1" stop-color="#1e40af"/>
    </radialGradient>
  </defs>
  <circle cx="30" cy="34" r="22" fill="url(#o)" stroke="#1e3a8a" stroke-width="2"/>
  <path d="M16 26 C20 20 28 20 30 26 C32 31 26 34 28 40 C30 46 24 50 20 46 C16 42 12 32 16 26 Z M36 22 C42 20 48 24 47 30 C46 34 40 33 40 38 C40 43 46 44 44 50 C42 54 36 52 35 46 C34 38 30 24 36 22 Z" fill="#4ade80"/>
  <path d="M4 40 A28 9 0 0 0 58 26" fill="none" stroke="#f97316" stroke-width="3.5" stroke-linecap="round"/>
  <path d="M51 6 c-5 0 -8.5 3.8 -8.5 8.5 c0 6 8.5 12.5 8.5 12.5 s8.5 -6.5 8.5 -12.5 c0 -4.7 -3.5 -8.5 -8.5 -8.5 z" fill="#f97316" stroke="#ffffff" stroke-width="2.5"/>
  <circle cx="51" cy="14.5" r="3" fill="#ffffff"/>
</svg>
